<?xml version="1.0" encoding="UTF-8"?>
<svg id="Layer_2" data-name="Layer 2" xmlns="http://www.w3.org/2000/svg" viewBox="0 0 40.32 31.68">
  <defs>
    <style>
      .cls-1 {
        fill: #fff;
      }
    </style>
  </defs>
  <g id="Layer_1-2" data-name="Layer 1">
    <path class="cls-1" d="m35.52,31.68H4.8c-1.28,0-2.4-.45-3.36-1.36-.96-.9-1.44-2.05-1.44-3.44v-.48c0-.43.16-.8.48-1.12.32-.32.69-.48,1.12-.48h37.12c.43,0,.8.16,1.12.48.32.32.48.69.48,1.12v.48c0,1.39-.48,2.54-1.44,3.44-.96.91-2.08,1.36-3.36,1.36ZM1.76,26.56v.32c0,.85.29,1.58.88,2.16.58.59,1.3.88,2.16.88h30.72c.85,0,1.57-.29,2.16-.88.59-.58.88-1.31.88-2.16v-.32H1.76Zm35.52-3.36c-.21,0-.43-.1-.64-.32-.22-.21-.32-.42-.32-.64V2.56c0-.21-.08-.4-.24-.56-.16-.16-.35-.24-.56-.24H4.8c-.21,0-.4.08-.56.24-.16.16-.24.35-.24.56v19.68c0,.22-.11.43-.32.64-.21.21-.43.32-.64.32s-.4-.1-.56-.32c-.16-.21-.24-.42-.24-.64V2.56c0-.75.24-1.36.72-1.84.48-.48,1.09-.72,1.84-.72h30.72c.75,0,1.36.24,1.84.72.48.48.72,1.1.72,1.84v19.68c0,.22-.08.43-.24.64-.16.21-.35.32-.56.32Zm-8.8-.16c-.21,0-.46-.13-.72-.4-.27-.26-.43-.61-.48-1.04-.05-.42,0-.85.16-1.28.16-.42.42-.75.8-.96.37-.21.77-.32,1.2-.32h.96c.32,0,.48-.16.48-.48v-2.4c0-.32-.16-.48-.48-.48h-.96c-.43,0-.83-.1-1.2-.32-.38-.21-.64-.53-.8-.96-.16-.43-.21-.85-.16-1.28.05-.42.24-.8.56-1.12l.8-.64c.1-.21.05-.42-.16-.64l-1.6-1.76c-.21-.21-.43-.21-.64,0l-.64.8c-.32.32-.7.51-1.12.56-.43.06-.86,0-1.28-.16-.43-.16-.78-.42-1.04-.8-.27-.37-.4-.77-.4-1.2v-.96c0-.32-.16-.48-.48-.48h-2.24c-.32,0-.48.16-.48.48v.96c0,.43-.14.83-.4,1.2-.27.38-.62.64-1.04.8-.43.16-.85.22-1.28.16-.43-.05-.8-.24-1.12-.56l-.64-.8c-.21-.21-.43-.21-.64,0l-1.76,1.76v.64l.8.64c.32.32.5.69.56,1.12.05.43,0,.85-.16,1.28-.16.43-.43.75-.8.96-.38.21-.78.32-1.2.32h-.96c-.32,0-.48.16-.48.48v2.4c0,.32.16.48.48.48h.96c.42,0,.83.11,1.2.32.37.21.64.54.8.96.16.43.21.85.16,1.28-.05.43-.21.78-.48,1.04s-.51.4-.72.4-.4-.1-.56-.32c-.16-.21-.24-.42-.24-.64s.08-.4.24-.56c.16-.16.18-.35.08-.56-.11-.21-.27-.32-.48-.32h-.96c-.64,0-1.17-.21-1.6-.64-.43-.43-.64-.91-.64-1.44v-2.4c0-.53.21-1.01.64-1.44s.96-.64,1.6-.64h.96c.21,0,.37-.11.48-.32.1-.21.05-.37-.16-.48l-.64-.8c-.43-.43-.64-.93-.64-1.52s.21-1.09.64-1.52l1.6-1.6c.42-.42.96-.64,1.6-.64s1.12.22,1.44.64l.8.64c.11.11.27.13.48.08.21-.05.32-.19.32-.4v-.96c0-.64.21-1.17.64-1.6s.96-.64,1.6-.64h2.24c.64,0,1.17.21,1.6.64.42.43.64.96.64,1.6v.96c0,.22.1.35.32.4.21.05.37.03.48-.08l.8-.64c.32-.42.8-.64,1.44-.64s1.17.22,1.6.64l1.6,1.6c.43.43.64.94.64,1.52s-.21,1.09-.64,1.52l-.64.8c-.21.11-.27.27-.16.48.11.21.27.32.48.32h.96c.64,0,1.17.21,1.6.64.42.43.64.91.64,1.44v2.4c0,.64-.22,1.15-.64,1.52-.43.38-.96.56-1.6.56h-.96c-.21,0-.38.11-.48.32-.11.21-.08.4.08.56.16.16.24.35.24.56s-.08.43-.24.64c-.16.22-.35.32-.56.32Zm-4.96,6.08h-6.72c-.32,0-.56-.08-.72-.24s-.24-.37-.24-.64.08-.48.24-.64c.16-.16.4-.24.72-.24h6.72c.32,0,.56.08.72.24.16.16.24.38.24.64s-.08.48-.24.64-.4.24-.72.24Zm-3.36-7.52c-1.17,0-2.16-.42-2.96-1.28-.8-.85-1.2-1.84-1.2-2.96s.4-2.1,1.2-2.96c.8-.85,1.79-1.28,2.96-1.28s2.16.43,2.96,1.28c.8.85,1.2,1.84,1.2,2.96s-.4,2.11-1.2,2.96c-.8.85-1.79,1.28-2.96,1.28Zm0-6.72c-.64,0-1.23.24-1.76.72-.54.48-.8,1.07-.8,1.76s.26,1.28.8,1.76c.53.48,1.12.72,1.76.72s1.22-.24,1.76-.72c.53-.48.8-1.06.8-1.76s-.27-1.28-.8-1.76c-.54-.48-1.12-.72-1.76-.72Z"/>
  </g>
</svg>