<?xml version="1.0" encoding="UTF-8"?>
<svg id="Layer_2" data-name="Layer 2" xmlns="http://www.w3.org/2000/svg" viewBox="0 0 42.88 48">
  <defs>
    <style>
      .cls-1 {
        fill: #fff;
      }
    </style>
  </defs>
  <g id="Layer_1-2" data-name="Layer 1">
    <path class="cls-1" d="m42.88,10.88c-.22,2.03-.64,3.9-1.28,5.6-.86,2.35-2.13,4.38-3.84,6.08-2.13,2.24-4.91,3.79-8.32,4.64-1.17.96-2.51,1.65-4,2.08l-.32.64c-.75,1.18-1.12,2.46-1.12,3.84,0,.75.16,1.55.48,2.4l.48,1.44h1.6c.85,0,1.57.29,2.16.88.58.59.88,1.31.88,2.16v1.44h2.56c.42,0,.74.13.96.4.21.27.32.56.32.88v3.36c0,.32-.11.61-.32.88-.21.27-.54.4-.96.4H10.72c-.43,0-.75-.13-.96-.4-.21-.27-.32-.56-.32-.88v-3.36c0-.32.11-.61.32-.88.21-.27.53-.4.96-.4h2.56v-1.44c0-.85.29-1.57.88-2.16.58-.58,1.3-.88,2.16-.88h1.6l.48-1.44c.32-.85.48-1.65.48-2.4,0-1.38-.38-2.66-1.12-3.84l-.32-.64c-1.49-.42-2.83-1.12-4-2.08-3.41-.85-6.19-2.4-8.32-4.64-1.71-1.71-2.99-3.73-3.84-6.08-.64-1.71-1.07-3.57-1.28-5.6,0-.96.02-1.78.08-2.48.05-.69.29-1.23.72-1.6.43-.37.96-.56,1.6-.56h6.08v-.96h-.16c-.43,0-.8-.16-1.12-.48-.32-.32-.48-.69-.48-1.12V1.6c0-.43.16-.8.48-1.12.32-.32.69-.48,1.12-.48h5.12c.21,0,.37.08.48.24.11.16.16.32.16.48s-.05.32-.16.48c-.11.16-.27.24-.48.24h-5.12c-.11,0-.16.06-.16.16v2.08c0,.11.05.16.16.16h26.24c.1,0,.16-.05.16-.16V1.6c0-.1-.06-.16-.16-.16h-17.76c-.22,0-.4-.08-.56-.24-.16-.16-.24-.32-.24-.48s.08-.32.24-.48c.16-.16.34-.24.56-.24h17.76c.42,0,.8.16,1.12.48s.48.69.48,1.12v2.08c0,.43-.16.8-.48,1.12-.32.32-.7.48-1.12.48h-.16v.96h6.08c.64,0,1.17.19,1.6.56.43.38.69.88.8,1.52v2.56ZM5.44,20.8c1.49,1.82,3.41,3.2,5.76,4.16-.75-.96-1.33-1.97-1.76-3.04-2.35-1.49-4.05-3.62-5.12-6.4-.54-1.39-.86-2.88-.96-4.48,0-.42.13-.8.4-1.12.27-.32.56-.48.88-.48h3.84v-1.76H2.4c-.32,0-.56.08-.72.24-.16.16-.24.35-.24.56-.11.64-.11,1.44,0,2.4.1,1.81.48,3.52,1.12,5.12.64,1.81,1.6,3.42,2.88,4.8Zm3.04-3.84v-6.08h-3.68c.1,1.5.37,2.88.8,4.16.75,1.81,1.76,3.31,3.04,4.48-.11-.85-.16-1.71-.16-2.56Zm18.8,10c1.76-1.01,3.17-2.4,4.24-4.16,1.06-1.76,1.6-3.7,1.6-5.84V5.28H9.76v11.68c0,2.14.53,4.08,1.6,5.84,1.07,1.76,2.48,3.15,4.24,4.16,1.76,1.02,3.71,1.52,5.84,1.52s4.08-.5,5.84-1.52Zm-16.56,16.56v3.04h21.44v-3.04H10.72Zm5.6-4.48c-.43,0-.8.16-1.12.48-.32.32-.48.69-.48,1.12v1.44h13.44v-1.44c0-.43-.16-.8-.48-1.12s-.7-.48-1.12-.48h-10.24Zm11.04-24.24c.21.7.11,1.26-.32,1.68l-1.44,1.44c-.11.11-.16.21-.16.32l.32,1.92c.11.75-.11,1.28-.64,1.6-.32.22-.64.32-.96.32s-.59-.05-.8-.16l-1.76-.96h-.32l-1.76.96c-.64.32-1.23.29-1.76-.08-.54-.37-.75-.93-.64-1.68l.32-1.92c0-.11-.05-.21-.16-.32l-1.44-1.44c-.43-.42-.54-.98-.32-1.68.21-.69.64-1.09,1.28-1.2l2.08-.16.16-.16.96-1.92c.21-.64.69-.96,1.44-.96s1.22.32,1.44.96l.96,1.92.16.16,2.08.16c.64.11,1.06.51,1.28,1.2Zm-1.28.4c0-.1-.05-.16-.16-.16l-2.08-.32c-.54-.1-.96-.43-1.28-.96l-.8-1.76c-.11-.1-.21-.16-.32-.16s-.21.06-.32.16l-.8,1.76c-.32.54-.75.86-1.28.96l-2.08.32c-.11,0-.16.06-.16.16v.32l1.6,1.44c.32.43.48.91.48,1.44l-.48,2.08c0,.11.05.19.16.24.1.05.21.03.32-.08l1.76-.96c.21-.1.48-.16.8-.16s.59.06.8.16l1.76.96c.11.11.21.13.32.08.11-.05.16-.13.16-.24l-.48-2.08c0-.53.16-1.01.48-1.44l1.6-1.44v-.32Zm-3.36,18.56c0-1.49.26-2.82.8-4-.64.11-1.33.16-2.08.16s-1.44-.05-2.08-.16c.53,1.18.8,2.51.8,4,0,.96-.16,1.92-.48,2.88l-.32.96h4.16l-.32-.96c-.32-.96-.48-1.92-.48-2.88Zm18.72-22.88c.11-.96.11-1.76,0-2.4,0-.21-.08-.4-.24-.56s-.4-.24-.72-.24h-6.08v1.76h3.84c.32,0,.61.16.88.48.27.32.4.7.4,1.12-.11.75-.21,1.5-.32,2.24-.11.22-.24.38-.4.48-.16.11-.32.14-.48.08-.16-.05-.29-.16-.4-.32-.11-.16-.16-.35-.16-.56.21-.64.32-1.33.32-2.08h-3.68v6.08c0,.85-.05,1.71-.16,2.56,1.06-.96,1.92-2.13,2.56-3.52.1-.21.24-.35.4-.4.16-.05.32-.02.48.08.16.11.29.24.4.4.11.16.11.35,0,.56-1.07,2.13-2.62,3.9-4.64,5.28-.43,1.07-1.01,2.08-1.76,3.04,2.35-.96,4.27-2.34,5.76-4.16,1.28-1.38,2.24-2.98,2.88-4.8.64-1.6,1.01-3.31,1.12-5.12Z"/>
  </g>
</svg>