<?xml version="1.0" encoding="UTF-8"?>
<svg id="Layer_2" data-name="Layer 2" xmlns="http://www.w3.org/2000/svg" viewBox="0 0 46.4 46.45">
  <defs>
    <style>
      .cls-1 {
        fill: #fff;
      }
    </style>
  </defs>
  <g id="Layer_1-2" data-name="Layer 1">
    <path class="cls-1" d="m44.48,3.49c1.28,1.33,1.92,2.93,1.92,4.8s-.64,3.44-1.92,4.72c-1.28,1.28-2.88,1.92-4.8,1.92-.54,0-1.12-.05-1.76-.16l-3.2,8.48c.85.43,1.52,1.04,2,1.84.48.8.72,1.68.72,2.64,0,1.5-.51,2.75-1.52,3.76-1.02,1.01-2.24,1.52-3.68,1.52s-2.69-.5-3.76-1.52c-1.07-1.01-1.6-2.27-1.6-3.76l.16-.32-4.96-1.12c-.32.64-.77,1.17-1.36,1.6-.59.43-1.23.64-1.92.64s-1.33-.18-1.92-.56c-.59-.37-1.04-.83-1.36-1.36l-5.12,1.76v.96c0,1.39-.51,2.59-1.52,3.6-1.02,1.01-2.24,1.52-3.68,1.52s-2.67-.51-3.68-1.52c-1.01-1.01-1.52-2.24-1.52-3.68s.51-2.67,1.52-3.68c1.01-1.01,2.21-1.52,3.6-1.52,1.06,0,2.02.27,2.88.8.85.53,1.49,1.23,1.92,2.08l5.12-1.76-.16-.48c0-.96.37-1.81,1.12-2.56.75-.75,1.65-1.12,2.72-1.12s1.94.38,2.64,1.12c.69.75,1.04,1.6,1.04,2.56l4.96,1.28c.32-1.07.93-1.92,1.84-2.56.9-.64,1.89-.96,2.96-.96.42,0,.85.05,1.28.16l3.2-8.32c-1.6-.85-2.72-2.13-3.36-3.84h-3.52c.1.32.16.59.16.8,0,.54-.22,1.02-.64,1.44.42.43.64.94.64,1.52s-.16,1.07-.48,1.44c-.32.38-.7.62-1.12.72.1.32.16.64.16.96,0,.54-.24,1.04-.72,1.52s-.99.72-1.52.72h-8.32c-1.18,0-2.24-.37-3.2-1.12l-1.44-1.12-9.6,3.2V.53l9.76,3.2,3.2-1.76c.75-.32,1.54-.48,2.4-.48h3.04c.64,0,1.23-.16,1.76-.48l1.76-.8C26.03,0,26.45-.05,26.88.05c.42.11.8.32,1.12.64.32.32.48.75.48,1.28,0,1.6-.59,2.93-1.76,4h6.56c.53-1.28,1.38-2.35,2.56-3.2,1.17-.85,2.45-1.28,3.84-1.28,1.92,0,3.52.67,4.8,2ZM7.84,31.89c.74-.75,1.12-1.62,1.12-2.64s-.38-1.89-1.12-2.64c-.75-.74-1.63-1.12-2.64-1.12s-1.9.38-2.64,1.12c-.75.75-1.12,1.63-1.12,2.64s.37,1.9,1.12,2.64c.75.75,1.65,1.12,2.72,1.12.96,0,1.81-.37,2.56-1.12Zm30.4-15.36h5.92v29.92H2.24v-10.4h5.92v8.96h3.04v-15.04h6.08v15.04h2.88v-15.04h6.08v15.04h3.04v-10.56h5.92v10.56h3.04v-28.48ZM5.12,26.93c.64,0,1.2.24,1.68.72s.72,1.02.72,1.6-.24,1.12-.72,1.6-1.02.72-1.6.72-1.12-.24-1.6-.72-.72-1.01-.72-1.6.24-1.12.72-1.6,1.04-.72,1.68-.72h-.16Zm1.6,10.56h-3.04v7.52h3.04v-7.52Zm-1.04-7.76c.16-.16.24-.32.24-.48s-.08-.32-.24-.48-.32-.24-.48-.24-.32.08-.48.24-.24.32-.24.48.08.32.24.48.35.24.56.24c.1,0,.24-.08.4-.24ZM12.64,5.01l-7.36-2.4v15.84l7.36-2.56V5.01Zm0,40h3.04v-13.44h-3.04v13.44ZM28.24,10.69c-.16-.16-.35-.24-.56-.24h-3.68v-1.44h12.64c.21,0,.4-.08.56-.24s.24-.35.24-.56-.08-.37-.24-.48c-.16-.1-.35-.16-.56-.16h-16.48v-1.6h2.88c1.06,0,2-.37,2.8-1.12.8-.75,1.2-1.71,1.2-2.88,0-.1-.08-.24-.24-.4-.16-.16-.35-.19-.56-.08l-1.76.96c-.75.32-1.55.48-2.4.48h-3.04c-.64,0-1.23.16-1.76.48l-3.04,1.6v11.2l1.44.96c.64.54,1.39.8,2.24.8h8.32c.21,0,.37-.08.48-.24.1-.16.16-.32.16-.48s-.06-.32-.16-.48c-.11-.16-.27-.24-.48-.24h-2.24v-1.6h3.68c.21,0,.4-.05.56-.16.16-.1.24-.27.24-.48s-.08-.4-.24-.56-.35-.24-.56-.24h-3.68v-1.44h3.68c.21,0,.4-.08.56-.24s.24-.35.24-.56-.08-.4-.24-.56Zm-7.92,15.6c.42-.42.64-.93.64-1.52s-.21-1.12-.64-1.6c-.43-.48-.96-.72-1.6-.72s-1.17.24-1.6.72c-.43.48-.64,1.02-.64,1.6s.21,1.1.64,1.52c.43.43.96.64,1.6.64s1.17-.21,1.6-.64Zm1.44,18.72h2.88v-13.44h-2.88v13.44Zm13.12-19.92c-.75-.69-1.63-1.04-2.64-1.04s-1.9.35-2.64,1.04c-.75.7-1.12,1.58-1.12,2.64s.37,1.98,1.12,2.72c.75.75,1.62,1.12,2.64,1.12s1.89-.37,2.64-1.12c.74-.75,1.12-1.65,1.12-2.72s-.38-1.94-1.12-2.64Zm-4.32,1.04c.43-.42.96-.64,1.6-.64s1.17.21,1.6.64c.42.43.64.96.64,1.6s-.22,1.17-.64,1.6c-.43.43-.96.64-1.6.64s-1.17-.21-1.6-.64c-.43-.43-.64-.96-.64-1.6s.21-1.17.64-1.6Zm.16,18.88h3.04v-8.96h-3.04v8.96Zm2-17.84c-.16-.16-.35-.24-.56-.24s-.38.08-.48.24c-.11.16-.16.35-.16.56s.05.4.16.56c.1.16.27.24.48.24s.4-.08.56-.24.24-.35.24-.56-.08-.4-.24-.56Zm10.72-15.2c1.01-1.01,1.52-2.24,1.52-3.68s-.51-2.69-1.52-3.76c-1.02-1.06-2.27-1.6-3.76-1.6-.96,0-1.87.29-2.72.88-.85.59-1.49,1.31-1.92,2.16h1.6c.75-.96,1.71-1.44,2.88-1.44s2.13.38,2.88,1.12c.74.75,1.12,1.63,1.12,2.64s-.38,1.9-1.12,2.64c-.75.75-1.71,1.12-2.88,1.12s-2.13-.53-2.88-1.6h-1.6c.43.96,1.06,1.71,1.92,2.24.85.54,1.76.8,2.72.8,1.49,0,2.75-.51,3.76-1.52Zm-4.56-3.76c0,.64-.22,1.23-.64,1.76.42.32.93.48,1.52.48s1.09-.21,1.52-.64c.42-.43.64-.96.64-1.6s-.22-1.17-.64-1.6c-.43-.42-.94-.64-1.52-.64s-1.1.21-1.52.64c.42.43.64.96.64,1.6Zm.8,36.8h3.04v-27.04h-3.04v27.04Z"/>
  </g>
</svg>