<?xml version="1.0" encoding="UTF-8"?>
<svg id="Layer_2" data-name="Layer 2" xmlns="http://www.w3.org/2000/svg" viewBox="0 0 48 45.12">
  <defs>
    <style>
      .cls-1 {
        fill: #fff;
      }
    </style>
  </defs>
  <g id="Layer_1-2" data-name="Layer 1">
    <path class="cls-1" d="m43.6,34.96c1.33.8,2.4,1.84,3.2,3.12s1.2,2.67,1.2,4.16v1.92c0,.21-.08.43-.24.64-.16.21-.4.32-.72.32H.96c-.32,0-.56-.1-.72-.32-.16-.21-.24-.43-.24-.64v-1.92c0-1.49.4-2.88,1.2-4.16s1.87-2.32,3.2-3.12c1.33-.8,2.74-1.2,4.24-1.2,1.28,0,2.45.24,3.52.72,1.06.48,2.02,1.1,2.88,1.84,1.07-1.38,2.4-2.45,4-3.2,1.6-.75,3.28-1.12,5.04-1.12s3.41.38,4.96,1.12c1.54.75,2.85,1.81,3.92,3.2.85-.74,1.81-1.36,2.88-1.84,1.07-.48,2.24-.72,3.52-.72,1.49,0,2.9.4,4.24,1.2ZM1.92,43.2h10.88c0-1.81.42-3.52,1.28-5.12-.64-.75-1.44-1.33-2.4-1.76-.96-.42-1.97-.64-3.04-.64-1.81,0-3.39.64-4.72,1.92-1.33,1.28-2,2.83-2,4.64v.96ZM13.28,13.44l-1.92,1.92.48,2.88c0,.32-.13.59-.4.8-.27.21-.62.27-1.04.16l-2.4-1.28-2.4,1.28c-.43.11-.77.05-1.04-.16-.27-.21-.4-.48-.4-.8l.48-2.88-1.92-1.92c-.32-.21-.43-.5-.32-.88.1-.37.37-.61.8-.72l2.72-.32,1.28-2.56c.1-.32.37-.48.8-.48s.69.16.8.48l1.28,2.56,2.72.32c.42.11.69.32.8.64.11.43,0,.75-.32.96Zm-.56,18.72c-1.12,1.07-2.46,1.6-4,1.6s-2.88-.53-4-1.6c-1.12-1.06-1.68-2.37-1.68-3.92s.56-2.88,1.68-4c1.12-1.12,2.45-1.68,4-1.68s2.88.56,4,1.68c1.12,1.12,1.68,2.43,1.68,3.92,0,1.6-.56,2.94-1.68,4Zm-1.36-1.28c.75-.74,1.12-1.65,1.12-2.72s-.38-1.95-1.12-2.64c-.75-.69-1.63-1.04-2.64-1.04s-1.89.35-2.64,1.04c-.75.69-1.12,1.58-1.12,2.64s.37,1.98,1.12,2.72c.75.75,1.6,1.12,2.56,1.12,1.07,0,1.97-.37,2.72-1.12Zm-.64-17.44l-1.44-.16c-.32,0-.54-.16-.64-.48l-.64-1.28-.64,1.28c-.11.32-.32.48-.64.48l-1.44.16.96.96c.32.22.42.48.32.8l-.16,1.44,1.12-.64c.32-.21.64-.21.96,0l1.12.64-.16-1.44c-.11-.32-.06-.58.16-.8l1.12-.96Zm8.56,21.6c-1.44.85-2.59,2-3.44,3.44-.85,1.44-1.28,3.02-1.28,4.72h18.88c0-1.71-.43-3.28-1.28-4.72-.86-1.44-2-2.58-3.44-3.44-1.44-.85-3.01-1.28-4.72-1.28s-3.28.43-4.72,1.28ZM31.2,6.4l-2.88,2.88.64,4c.11.43,0,.75-.32.96-.32.21-.69.27-1.12.16l-3.52-1.92-3.68,1.92c-.32.11-.64.06-.96-.16-.32-.21-.43-.53-.32-.96l.64-4-2.88-2.88c-.32-.21-.43-.5-.32-.88.1-.37.37-.61.8-.72l4-.48,1.92-3.68c.1-.43.34-.64.72-.64s.67.21.88.64l1.76,3.68,4.16.48c.32.11.53.32.64.64.1.43.05.75-.16.96Zm-1.92,23.36c-1.5,1.49-3.25,2.24-5.28,2.24s-3.79-.75-5.28-2.24c-1.5-1.49-2.24-3.28-2.24-5.36s.74-3.84,2.24-5.28c1.49-1.44,3.25-2.16,5.28-2.16s3.79.72,5.28,2.16c1.49,1.44,2.24,3.23,2.24,5.36s-.75,3.79-2.24,5.28Zm-1.28-1.36c1.07-1.12,1.6-2.45,1.6-4s-.53-2.85-1.6-3.92c-1.07-1.06-2.4-1.6-4-1.6s-2.93.54-4,1.6c-1.07,1.07-1.6,2.38-1.6,3.92s.53,2.88,1.6,4c1.07,1.12,2.4,1.68,4,1.68s2.93-.56,4-1.68Zm.48-22l-2.56-.32c-.32,0-.59-.16-.8-.48l-1.12-2.4-1.28,2.4c-.11.32-.32.48-.64.48l-2.72.32,1.92,1.92c.32.22.42.48.32.8l-.48,2.72,2.4-1.28c.32-.1.64-.1.96,0l2.24,1.28-.32-2.72c-.11-.32-.06-.58.16-.8l1.92-1.92Zm-3.84,29.52c-.21-.16-.43-.24-.64-.24s-.43.08-.64.24c-.22.16-.32.38-.32.64s.1.51.32.72c.21.21.42.32.64.32s.42-.1.64-.32.32-.43.32-.64c0-.32-.11-.56-.32-.72Zm6.08,4.08c.11.21.13.46.08.72-.05.27-.21.46-.48.56-.27.11-.51.11-.72,0-.21-.1-.38-.27-.48-.48-.43-.96-1.12-1.76-2.08-2.4-.21-.1-.35-.29-.4-.56-.05-.26,0-.5.16-.72.16-.21.37-.35.64-.4.26-.05.5.03.72.24,1.17.75,2.02,1.76,2.56,3.04Zm12.56-7.84c-1.12,1.07-2.46,1.6-4,1.6s-2.88-.53-4-1.6c-1.12-1.06-1.68-2.37-1.68-3.92s.56-2.88,1.68-4c1.12-1.12,2.45-1.68,4-1.68s2.88.56,4,1.68c1.12,1.12,1.68,2.43,1.68,3.92,0,1.6-.56,2.94-1.68,4Zm2.8,10.08c0-1.81-.67-3.36-2-4.64-1.33-1.28-2.91-1.92-4.72-1.92-1.07,0-2.08.21-3.04.64-.96.43-1.76,1.02-2.4,1.76.85,1.6,1.28,3.31,1.28,5.12h10.88v-.96Zm-.96-28.8l-1.92,1.92.48,2.88c.11.32,0,.59-.32.8-.32.21-.64.27-.96.16l-2.56-1.28-2.4,1.28c-.32.11-.64.05-.96-.16-.32-.21-.48-.48-.48-.8l.48-2.88-1.92-1.92c-.32-.21-.4-.5-.24-.88.16-.37.4-.61.72-.72l2.72-.32,1.28-2.56c.21-.32.48-.48.8-.48.42,0,.69.16.8.48l1.28,2.56,2.72.32c.43.11.69.32.8.64.1.43,0,.75-.32.96Zm-3.2,17.44c.75-.74,1.12-1.65,1.12-2.72s-.38-1.95-1.12-2.64c-.75-.69-1.63-1.04-2.64-1.04s-1.9.35-2.64,1.04c-.75.69-1.12,1.58-1.12,2.64s.37,1.98,1.12,2.72c.75.75,1.65,1.12,2.72,1.12.96,0,1.81-.37,2.56-1.12Zm.64-17.44l-1.44-.16c-.32,0-.54-.16-.64-.48l-.64-1.28-.64,1.28c-.11.32-.32.48-.64.48l-1.28.16.96.96c.21.22.26.48.16.8l-.16,1.44,1.12-.64c.32-.21.64-.21.96,0l1.12.64-.16-1.44c-.11-.32,0-.58.32-.8l.96-.96Z"/>
  </g>
</svg>